<?xml version="1.0" standalone="no"?>
<!DOCTYPE svg PUBLIC "-//W3C//DTD SVG 20010904//EN"
 "http://www.w3.org/TR/2001/REC-SVG-20010904/DTD/svg10.dtd">
<svg version="1.0" xmlns="http://www.w3.org/2000/svg"
 width="513.000000pt" height="513.000000pt" viewBox="0 0 513.000000 513.000000"
 preserveAspectRatio="xMidYMid meet">
<metadata>
Created by potrace 1.14, written by Peter Selinger 2001-2017
</metadata>
<g transform="translate(0.000000,513.000000) scale(0.100000,-0.100000)"
fill="#000000" stroke="none">
<path d="M870 5122 c-145 -12 -356 -94 -475 -185 -179 -136 -320 -349 -364
-550 -6 -23 -13 -55 -17 -72 -4 -16 -8 -793 -9 -1725 -1 -1419 1 -1709 13
-1780 58 -351 320 -651 665 -761 34 -11 76 -22 92 -24 17 -3 55 -8 85 -13 30
-4 811 -7 1735 -6 1819 1 1721 -2 1879 53 138 48 269 132 373 239 110 112 184
235 232 382 47 147 47 129 45 1915 -1 1553 -2 1686 -18 1759 -61 279 -236 514
-487 654 -64 36 -169 78 -232 91 -23 6 -55 13 -72 17 -28 6 -3369 13 -3445 6z"/>
</g>
</svg>
